<svg width="1450" height="923" viewBox="0 0 1450 923" fill="none" xmlns="http://www.w3.org/2000/svg">
<path d="M252.652 461.5C252.652 206.621 459.211 -2.22823e-05 714.015 0L714.015 923C459.211 923 252.652 716.379 252.652 461.5Z" fill="#616161" fill-opacity="1"/>
<path d="M735.985 461.5C735.985 206.621 942.544 -2.22823e-05 1197.35 0V923C942.544 923 735.985 716.379 735.985 461.5Z" fill="#616161" fill-opacity="1"/>
<path d="M0 865.447C137.902 785.651 230.682 636.507 230.682 465.687C230.682 294.867 137.902 145.723 6.98755e-05 65.9276L0 865.447Z" fill="#616161" fill-opacity="1"/>
<path d="M1219.32 457.313C1219.32 286.493 1312.1 137.349 1450 57.5534L1450 857.073C1312.1 777.277 1219.32 628.133 1219.32 457.313Z" fill="#616161" fill-opacity="1"/>
</svg>
