<svg width="304" height="32" viewBox="0 0 304 32" fill="none" xmlns="http://www.w3.org/2000/svg">
<path d="M8.53788 15.5909C8.53788 6.98029 15.5182 -7.52762e-07 24.1288 0L24.1288 31.1818C15.5182 31.1818 8.53788 24.2015 8.53788 15.5909Z" fill="#BE5F82"/>
<path d="M24.8712 15.5909C24.8712 6.98029 31.8515 -7.52763e-07 40.4621 0L40.4621 31.1818C31.8515 31.1818 24.8712 24.2015 24.8712 15.5909Z" fill="#BE5F82"/>
<path d="M0 29.2375C4.66013 26.5417 7.79545 21.5032 7.79545 15.7324C7.79546 9.96153 4.66014 4.92298 2.36131e-06 2.22724L0 29.2375Z" fill="#BE5F82"/>
<path d="M41.2045 15.4495C41.2045 9.67862 44.3399 4.64007 49 1.94433L49 28.9546C44.3399 26.2588 41.2045 21.2203 41.2045 15.4495Z" fill="#BE5F82"/>
<path d="M141.592 9.71705L143.068 8.1038C141.605 7.64176 140.459 7.91795 139.558 8.90139C138.558 9.99102 137.56 11.0824 136.561 12.174L136.546 12.1903C135.164 13.7023 133.781 15.2146 132.392 16.7225C132.263 16.8602 132.103 16.9685 131.942 17.0767C131.865 17.1288 131.787 17.1808 131.714 17.2361C131.677 17.2097 131.642 17.1822 131.607 17.155L131.606 17.154C131.586 17.139 131.567 17.1242 131.548 17.1096L131.548 16.3341C131.546 12.9084 131.543 9.48523 131.543 6.06206C131.542 5.67055 131.543 5.27882 131.544 4.88701C131.547 3.90715 131.549 2.92672 131.525 1.94761C131.52 1.68949 131.373 1.32038 131.174 1.20164C130.302 0.685399 129.403 1.21197 129.403 2.19541C129.403 3.99074 129.403 5.78623 129.403 7.5818V7.58301C129.402 12.9689 129.401 18.3557 129.408 23.7408C129.409 23.9665 129.404 24.1564 129.4 24.3161C129.389 24.7245 129.383 24.9356 129.486 25.0449C129.596 25.1619 129.83 25.1622 130.315 25.1627C130.482 25.1629 130.679 25.1631 130.911 25.1682C131.391 25.1785 131.559 24.9952 131.551 24.528C131.533 23.3484 131.515 22.1688 131.569 20.9918C131.587 20.6227 131.757 20.1916 132 19.9128C132.596 19.2297 133.226 18.5789 133.857 17.9282L133.858 17.9268L133.859 17.9259C134.064 17.7144 134.269 17.5029 134.473 17.2903C135.043 16.6915 135.165 16.7018 135.621 17.3807C136.034 17.994 136.447 18.6068 136.86 19.2195L136.88 19.2498L136.882 19.252C138.028 20.9518 139.173 22.6512 140.306 24.3603C140.626 24.8481 140.908 25.2637 141.605 25.1759C141.976 25.1306 142.355 25.1406 142.78 25.1519C142.984 25.1573 143.199 25.163 143.43 25.163C143.349 25.0234 143.287 24.9122 143.236 24.8195L143.234 24.8172L143.233 24.8151C143.149 24.6635 143.092 24.5618 143.027 24.4661C141.055 21.5364 139.08 18.6093 137.103 15.6848C136.832 15.2821 136.788 14.944 137.157 14.5491C138.246 13.3827 139.322 12.204 140.397 11.0249L140.4 11.0221C140.797 10.5869 141.194 10.1517 141.592 9.71705Z" fill="white"/>
<path fill-rule="evenodd" clip-rule="evenodd" d="M249.017 22.2001C248.94 22.3067 248.864 22.4138 248.788 22.5209L248.788 22.5219C248.62 22.759 248.453 22.9956 248.273 23.2248C247.163 24.6471 245.653 25.3414 243.895 25.4911C242.068 25.6486 240.354 25.3233 238.878 24.1256C237.525 23.0286 236.872 20.6204 237.388 18.9813C238.075 16.8079 239.727 15.8761 241.771 15.538C242.834 15.362 243.912 15.29 244.991 15.2181C245.542 15.1814 246.093 15.1446 246.642 15.094C247.176 15.045 247.705 14.9572 248.235 14.8643C248.911 14.7455 249.202 14.2835 249.257 13.6434C249.412 11.7668 248.451 10.2929 246.518 9.74831C244.755 9.25272 242.953 9.2553 241.392 10.3781C240.811 10.7937 240.37 11.4545 239.993 12.0817C239.735 12.5128 239.482 12.6728 239.022 12.5876L238.932 12.5707C238.835 12.5525 238.738 12.5343 238.64 12.5205C237.708 12.3863 237.584 12.1876 237.969 11.328C238.821 9.42824 240.346 8.4035 242.329 7.88209C244.032 7.43296 245.718 7.48975 247.344 8.00857C249.685 8.75454 251.427 10.2878 251.438 13.3956C251.443 15.2495 251.443 17.1034 251.443 18.9573V18.9736C251.443 20.8235 251.443 22.6733 251.448 24.5232C251.448 24.9904 251.28 25.1762 250.805 25.1685C250.575 25.1647 250.377 25.1649 250.208 25.1651C249.671 25.1657 249.415 25.166 249.296 25.0387C249.188 24.9229 249.193 24.7016 249.202 24.2791C249.206 24.1022 249.21 23.8896 249.208 23.6352C249.204 23.3271 249.205 23.0178 249.206 22.7089L249.207 22.6968V22.6956C249.207 22.5459 249.208 22.3959 249.208 22.2465C249.195 22.2433 249.181 22.2401 249.168 22.237L249.06 22.2124L249.039 22.2074L249.019 22.2026L249.017 22.2001ZM249.267 17.7914C249.267 17.7052 249.267 17.6194 249.266 17.5336V17.53C249.266 17.36 249.265 17.1903 249.267 17.0196C249.272 16.6401 249.099 16.5627 248.735 16.6169C248.273 16.6849 247.808 16.7342 247.343 16.7835C246.978 16.8222 246.613 16.8609 246.25 16.9086C245.848 16.9608 245.446 17.0094 245.043 17.058C243.874 17.1994 242.704 17.3408 241.552 17.5694C240.499 17.7785 239.76 18.4909 239.593 19.6111C239.404 20.8836 239.577 22.0555 240.759 22.8428C242.202 23.803 243.808 23.7823 245.341 23.2893C247.84 22.484 249.218 20.4242 249.264 17.7888L249.267 17.7914Z" fill="white"/>
<path fill-rule="evenodd" clip-rule="evenodd" d="M225.319 17.2799C225.985 17.2802 226.651 17.2805 227.317 17.2805L233.467 17.2805C233.818 17.2808 234.126 17.2811 234.131 16.7694C234.149 14.7199 233.77 12.7763 232.688 11.0056C231.756 9.4775 230.432 8.45276 228.713 7.94942C227.149 7.49255 225.574 7.49255 224.01 7.94684C222.51 8.38049 221.253 9.16776 220.28 10.4171C219.206 11.7928 218.659 13.3648 218.409 15.0581C218.073 17.327 218.396 19.5184 219.452 21.5421C220.482 23.5167 222.152 24.7195 224.348 25.2668C227.735 26.1108 231.64 24.8228 233.228 21.6556C233.251 21.6081 233.278 21.559 233.306 21.509C233.485 21.1846 233.686 20.8211 233.145 20.5819C232.167 20.1508 231.635 20.1689 231.379 20.6929C229.885 23.7645 226.047 24.1414 223.584 22.8791C221.666 21.8957 220.778 20.1998 220.582 18.1039C220.513 17.3683 220.58 17.2805 221.323 17.2805C222.655 17.2788 223.987 17.2794 225.319 17.2799ZM231.181 15.404H226.22C225.707 15.4048 225.195 15.4038 224.682 15.4028C223.584 15.4006 222.486 15.3984 221.388 15.4143C220.822 15.422 220.603 15.2259 220.673 14.658C220.915 12.6963 222.337 10.5952 224.565 9.94212C226.514 9.37167 228.31 9.59107 229.908 10.8352C231.201 11.8419 231.697 13.3003 231.872 14.8748C231.929 15.373 231.542 15.404 231.181 15.404Z" fill="white"/>
<path fill-rule="evenodd" clip-rule="evenodd" d="M201.145 17.2804C200.479 17.2804 199.813 17.2801 199.147 17.2798C197.816 17.2793 196.484 17.2787 195.152 17.2804C194.411 17.2804 194.344 17.363 194.411 18.1116C194.602 20.2385 195.516 21.9498 197.472 22.9152C199.95 24.1361 203.724 23.7438 205.213 20.6928C205.507 20.0881 205.951 20.2316 206.365 20.3655C206.449 20.3928 206.532 20.4197 206.612 20.4398C207.345 20.6205 207.446 20.9406 207.1 21.6065C205.412 24.8614 201.625 26.0849 198.242 25.2822C196.071 24.7685 194.398 23.6044 193.35 21.6504C192.178 19.4667 191.868 17.1281 192.305 14.6837C192.576 13.166 193.105 11.7798 194.032 10.5254C194.963 9.26317 196.187 8.4346 197.648 7.99837C199.075 7.57247 200.531 7.48471 202.033 7.8306C203.992 8.28231 205.464 9.32512 206.512 11.0003C207.611 12.7633 207.973 14.7147 207.957 16.7642C207.955 17.283 207.642 17.283 207.276 17.283C205.916 17.2813 204.557 17.2818 203.197 17.2824H203.195C202.515 17.2827 201.834 17.283 201.153 17.283L201.145 17.2804ZM200.046 15.4039H204.945C205.337 15.4039 205.709 15.3703 205.665 14.8308C205.526 13.1608 204.942 11.6998 203.541 10.6932C201.951 9.54968 200.198 9.38706 198.34 9.95235C196.182 10.6106 194.741 12.642 194.499 14.6527C194.432 15.218 194.638 15.4219 195.209 15.4142C196.307 15.3984 197.406 15.4005 198.506 15.4027C199.019 15.4037 199.532 15.4047 200.046 15.4039Z" fill="white"/>
<path fill-rule="evenodd" clip-rule="evenodd" d="M94.0126 17.2801H99.9417V17.275C100.472 17.275 101.002 17.2741 101.532 17.2732H101.535C103.024 17.2707 104.512 17.2682 106 17.2853C106.542 17.2904 106.694 17.0994 106.694 16.5755C106.694 15.148 106.488 13.7619 105.961 12.4352C105.192 10.4915 103.961 8.97637 101.94 8.19685C100.264 7.55154 98.5788 7.44571 96.8313 7.88968C95.2155 8.30009 93.8732 9.09769 92.8459 10.4115C91.8496 11.6892 91.2998 13.1502 91.0313 14.7376C90.6209 17.1614 90.9229 19.4767 92.087 21.645C93.1376 23.6015 94.8051 24.7553 96.9707 25.2845C100.241 26.0846 104.154 24.8611 105.765 21.7198C106.201 20.868 106.108 20.5841 105.174 20.3853C105.115 20.3727 105.055 20.3576 104.994 20.3424C104.61 20.2452 104.212 20.1448 103.953 20.6847C102.487 23.7332 98.7182 24.1436 96.2196 22.9227C94.3095 21.9908 93.3905 20.3208 93.1634 18.2507C93.0627 17.3369 93.1169 17.2801 94.0126 17.2801ZM103.679 15.4062H98.7775L98.7827 15.4036C98.2664 15.4044 97.7501 15.4031 97.2339 15.4018C96.1371 15.3991 95.0407 15.3964 93.9455 15.4139C93.3673 15.4242 93.1686 15.2023 93.2408 14.6473C93.499 12.6494 94.8876 10.6309 97.0843 9.94949C98.7517 9.43325 100.36 9.53133 101.862 10.4064C103.54 11.3846 104.234 12.985 104.415 14.8409C104.464 15.3597 104.074 15.4062 103.679 15.4062Z" fill="white"/>
<path d="M72.446 21.2043C72.3672 21.4454 72.2883 21.6866 72.2115 21.9283L72.2141 21.9361L72.0231 21.8948C72.0085 21.8492 71.993 21.8039 71.9775 21.7585C71.9465 21.6679 71.9155 21.5773 71.8914 21.4844C71.7682 21.0198 71.6451 20.5553 71.5221 20.0907C71.1528 18.6968 70.7835 17.3029 70.4098 15.9089C70.2239 15.2125 70.0322 14.5175 69.8405 13.8226C69.4758 12.5008 69.1111 11.1787 68.7862 9.84568C68.3139 7.90203 68.2855 7.83492 66.5045 7.94591H66.4399C66.0631 7.93558 65.9392 8.12401 66.0269 8.47506C66.0404 8.52898 66.0535 8.58313 66.0665 8.6373C66.0985 8.76982 66.1304 8.90251 66.1689 9.0326C66.3217 9.5406 66.4759 10.0486 66.6303 10.5569C66.8853 11.3966 67.1406 12.2374 67.3898 13.0799C67.6467 13.9498 67.8996 14.8216 68.1526 15.6934C68.4055 16.5652 68.6585 17.437 68.9153 18.3069C69.0964 18.9192 69.2844 19.5294 69.4722 20.1393C69.8253 21.2853 70.1781 22.4307 70.4847 23.588L70.5249 23.7409C70.896 25.1557 70.8992 25.1677 72.4258 25.1652C73.293 25.1626 73.3602 25.0774 73.5925 24.2308C74.0321 22.6228 74.4924 21.0231 74.953 19.4224L75.1128 18.867C75.6497 16.9982 76.1917 15.132 76.7415 13.2658C76.9161 12.674 77.1017 12.0835 77.2873 11.4935C77.3542 11.2806 77.4211 11.0678 77.4875 10.8549L77.4947 10.8547C77.5592 10.8522 77.6216 10.8498 77.6863 10.8498C77.8102 11.2592 77.9358 11.6684 78.0614 12.0776C78.2888 12.8188 78.5164 13.56 78.7342 14.3034C79.0585 15.4112 79.3801 16.5192 79.7017 17.6272C80.2786 19.6146 80.8554 21.6016 81.4471 23.5855C81.9445 25.2597 81.9733 25.2582 83.6636 25.167L83.6979 25.1652C84.0438 25.1471 84.2425 25.0516 84.3226 24.6773C84.4032 24.3012 84.5198 23.9325 84.6362 23.5644C84.6876 23.402 84.739 23.2397 84.7872 23.077C85.0501 22.1876 85.3131 21.2975 85.576 20.4075C85.8396 19.5152 86.1033 18.6229 86.3669 17.7313C86.609 16.9125 86.85 16.0938 87.091 15.2753L87.0914 15.2738L87.0928 15.2691L87.0941 15.2647C87.3709 14.3244 87.6478 13.3841 87.9259 12.445C88.055 12.009 88.1861 11.5736 88.3171 11.1383C88.5741 10.285 88.831 9.43208 89.072 8.57572C89.121 8.40278 89.0229 8.01818 88.9842 8.01818C88.3028 7.99495 87.6213 8.00786 86.9425 8.04399C86.8676 8.04916 86.7721 8.22984 86.7411 8.34342C86.6544 8.65163 86.576 8.96262 86.4977 9.27362C86.4454 9.48093 86.3932 9.68824 86.3385 9.89472C86.0168 11.1048 85.6933 12.3131 85.3696 13.5225L85.164 14.2905C85.0543 14.6987 84.9448 15.107 84.8353 15.5154L84.835 15.5164L84.8347 15.5174L84.8341 15.5198C84.5291 16.6569 84.224 17.7943 83.9147 18.929C83.7572 19.502 83.595 20.0742 83.421 20.688C83.3043 21.0997 83.1821 21.5308 83.0526 21.9929C82.9789 21.8659 82.911 21.7597 82.851 21.6659C82.7366 21.4869 82.651 21.3529 82.6086 21.2056C82.4578 20.682 82.3187 20.1554 82.1796 19.6291L82.1794 19.6281C82.0566 19.1636 81.9339 18.6992 81.8033 18.2372C81.492 17.1356 81.1772 16.0351 80.8623 14.9348L80.8618 14.933C80.3779 13.2419 79.894 11.5507 79.4234 9.856L79.411 9.81146C79.1437 8.85371 79.0114 8.37963 78.6992 8.14661C78.3932 7.91821 77.9144 7.92137 76.9662 7.92763L76.9351 7.92784C76.3698 7.933 76.1608 8.17306 76.024 8.6893C75.6352 10.1618 75.2182 11.626 74.8009 13.0912L74.8006 13.0925C74.6972 13.4556 74.5937 13.8187 74.4907 14.1821L74.2728 14.952C73.8167 16.5638 73.3605 18.1762 72.893 19.7859C72.7546 20.2608 72.6004 20.7324 72.446 21.2043Z" fill="white"/>
<path fill-rule="evenodd" clip-rule="evenodd" d="M116.851 17.2825C115.392 17.2851 113.933 17.2877 112.476 17.2728C111.887 17.2676 111.67 17.4483 111.732 18.0626C111.949 20.1792 112.814 21.9009 114.765 22.8921C117.23 24.1466 121.087 23.749 122.555 20.6826C122.821 20.1265 123.237 20.241 123.628 20.3491C123.7 20.369 123.772 20.3886 123.841 20.4038C124.687 20.5922 124.788 20.9097 124.393 21.6763C122.759 24.8409 118.872 26.1341 115.436 25.2513C113.317 24.7067 111.699 23.5477 110.677 21.6428C109.505 19.4591 109.208 17.1179 109.639 14.6735C109.915 13.1067 110.475 11.6845 111.451 10.4145C112.416 9.15489 113.686 8.38568 115.181 7.94946C116.745 7.49259 118.32 7.49775 119.881 7.95462C121.412 8.40375 122.656 9.2762 123.567 10.5875C124.837 12.4098 125.291 14.4644 125.289 16.6507C125.289 17.1231 125.129 17.2934 124.654 17.2883C123.123 17.2767 121.594 17.2781 120.065 17.2796H120.063C119.553 17.2801 119.042 17.2805 118.531 17.2805H118.534C117.974 17.2805 117.414 17.2815 116.854 17.2825H116.851ZM117.365 15.4066C117.916 15.4066 118.467 15.4069 119.019 15.4072H119.023C120.124 15.4077 121.224 15.4083 122.326 15.4066C122.679 15.4066 123.1 15.3885 123.043 14.8981C122.847 13.2642 122.333 11.749 120.937 10.732C119.339 9.57046 117.576 9.38461 115.689 9.96022C113.488 10.6288 112.12 12.6266 111.856 14.578C111.756 15.3188 111.864 15.4066 112.6 15.4092C113.659 15.4126 114.717 15.4115 115.775 15.4103H115.777L115.78 15.4103C116.309 15.4097 116.838 15.4092 117.367 15.4092L117.365 15.4066Z" fill="white"/>
<path fill-rule="evenodd" clip-rule="evenodd" d="M279.05 17.2822C279.611 17.2812 280.173 17.2802 280.734 17.2802L280.737 17.2854C281.302 17.2854 281.867 17.284 282.433 17.2826C283.887 17.2789 285.342 17.2753 286.795 17.2957C287.371 17.3035 287.52 17.1047 287.52 16.5497C287.513 14.81 287.216 13.1271 286.413 11.5887C285.435 9.70695 283.943 8.41893 281.813 7.88978C280.35 7.52583 278.927 7.56197 277.487 7.93108C276.008 8.31052 274.754 9.06939 273.796 10.2438C272.299 12.0765 271.69 14.2499 271.685 16.573C271.677 19.0587 272.294 21.3869 274.065 23.2325C275.701 24.9387 277.8 25.6046 280.133 25.5065C282.939 25.3904 285.164 24.2469 286.573 21.7354C287.056 20.8758 286.937 20.5816 285.956 20.3777C285.902 20.3664 285.847 20.3531 285.791 20.3398C285.416 20.2494 285.03 20.1564 284.787 20.6693C283.344 23.7307 279.428 24.1669 276.945 22.866C275.027 21.8619 274.178 20.166 273.956 18.0752C273.892 17.4661 274.077 17.2673 274.676 17.2725C276.134 17.2874 277.592 17.2848 279.05 17.2822ZM279.637 15.4063V15.4114C279.107 15.4114 278.577 15.4117 278.048 15.412H278.045C276.987 15.4126 275.929 15.4131 274.87 15.4114C274.067 15.4088 273.956 15.3211 274.083 14.508C274.385 12.5566 275.747 10.613 277.921 9.95733C279.761 9.39979 281.48 9.56757 283.063 10.6672C284.534 11.6867 285.071 13.2251 285.257 14.9133C285.31 15.4065 284.895 15.4064 284.55 15.4063L279.637 15.4063Z" fill="white"/>
<path d="M151.839 7.96739C152.054 7.96739 152.264 7.96335 152.469 7.9594C152.998 7.94922 153.498 7.93958 153.989 8.00095C154.18 8.02418 154.376 8.42685 154.48 8.69013C155.113 10.2771 155.736 11.8663 156.359 13.4562L156.36 13.459L156.361 13.4615L156.363 13.4675L156.365 13.4705C156.682 14.2809 157 15.0915 157.319 15.902C158.124 17.9463 158.935 19.9907 159.756 22.0298C159.807 22.1563 159.967 22.2828 160.102 22.3163C160.164 22.3318 160.326 22.1486 160.37 22.0272C161.233 19.6875 162.089 17.3461 162.946 15.0044L162.947 15.0005L163.779 12.7244C164.286 11.3369 164.794 9.94804 165.305 8.56107C165.458 8.15066 165.695 7.88479 166.209 7.92609C166.61 7.95778 167.015 7.95105 167.465 7.94356C167.675 7.94007 167.895 7.93642 168.129 7.93642C168.061 8.12777 167.999 8.30506 167.941 8.47221C167.807 8.8552 167.692 9.18491 167.561 9.50837L166.95 11.0226C165.556 14.4753 164.162 17.9287 162.753 21.3742C162.606 21.7328 162.459 22.0916 162.313 22.4505C161.476 24.5021 160.639 26.5553 159.712 28.5654C158.922 30.2794 157.582 31.3867 155.572 31.4332C155.237 31.4414 154.902 31.4472 154.567 31.453C154.065 31.4616 153.562 31.4703 153.06 31.4874C152.601 31.5029 152.412 31.3144 152.397 30.8447L152.395 30.7982C152.378 30.2023 152.369 29.9041 152.514 29.7534C152.659 29.6023 152.958 29.5993 153.557 29.5931L153.587 29.5928C154.209 29.585 154.831 29.5695 155.448 29.4973C156.697 29.3527 157.386 28.4906 157.897 27.4581C158.075 27.1 158.222 26.7267 158.369 26.3535C158.457 26.1295 158.546 25.9055 158.641 25.6848C158.907 25.0647 158.658 24.539 158.414 24.0246C158.348 23.886 158.282 23.7481 158.228 23.6095C157.453 21.6563 156.65 19.7142 155.846 17.772L155.845 17.7698C155.621 17.2282 155.397 16.6866 155.174 16.1447C154.643 14.8571 154.111 13.5709 153.579 12.2846L153.572 12.2677C153.038 10.9758 152.504 9.68391 151.971 8.39071C151.947 8.33402 151.929 8.27446 151.902 8.1833L151.902 8.18208L151.901 8.18089C151.884 8.12306 151.863 8.05257 151.834 7.96223L151.839 7.96739Z" fill="white"/>
<path d="M256.667 23.7792C258.175 25.0698 259.982 25.5008 261.938 25.6144C262.199 25.5701 262.462 25.5315 262.724 25.4929C263.286 25.4102 263.848 25.3276 264.396 25.1885C266.554 24.6413 268.136 23.441 268.719 21.1851C269.161 19.4763 268.587 17.2022 266.61 16.4614C265.706 16.1215 264.749 15.9247 263.794 15.7282C263.472 15.6621 263.15 15.5959 262.831 15.5245C262.385 15.425 261.934 15.3409 261.483 15.2567C260.776 15.1246 260.068 14.9925 259.378 14.8017C258.361 14.5204 257.741 13.7692 257.654 12.7058C257.573 11.7223 257.981 10.9222 258.81 10.3466C259.837 9.63156 261.014 9.56703 262.202 9.5851C263.725 9.60833 265.025 10.1013 265.828 11.49L265.85 11.528C266.375 12.4349 266.378 12.4388 267.467 12.1689C267.479 12.1659 267.491 12.1627 267.503 12.1594C267.553 12.1461 267.604 12.1328 267.656 12.1328C268.27 12.1147 268.301 11.7559 268.133 11.3016C267.462 9.49217 266.143 8.41323 264.298 7.93054C262.769 7.53045 261.252 7.50722 259.713 7.89699C257.847 8.36935 256.373 9.25986 255.684 11.1777C255.003 13.0697 255.767 15.2225 257.501 16.2343C258.431 16.7778 259.453 16.9472 260.476 17.1167C260.716 17.1565 260.956 17.1963 261.195 17.241C261.51 17.2994 261.825 17.3563 262.14 17.4132C263.091 17.5847 264.041 17.7563 264.982 17.9715C265.65 18.1237 266.195 18.5367 266.461 19.2001C266.892 20.2687 266.6 21.5335 265.756 22.3285C264.646 23.3765 263.262 23.6114 261.817 23.5727C259.909 23.5236 258.278 22.9325 257.354 21.0947C256.923 20.2429 256.897 20.23 255.971 20.4752L255.931 20.4861C255.921 20.4889 255.91 20.4917 255.9 20.4946C255.89 20.4975 255.879 20.5005 255.869 20.5035L255.797 20.5245C255.689 20.556 255.581 20.5876 255.472 20.6094C255.129 20.6766 255.023 20.8572 255.09 21.2057C255.297 22.2614 255.872 23.0977 256.667 23.7792Z" fill="white"/>
<path d="M297.123 25.6072C295.146 25.5142 293.321 25.078 291.79 23.7771C291.041 23.1421 290.512 22.3445 290.252 21.3869C290.13 20.9403 290.213 20.628 290.745 20.5686C290.826 20.5603 290.905 20.5328 290.984 20.5052C291.028 20.49 291.072 20.4748 291.116 20.4628C292.012 20.2279 292.074 20.2486 292.466 21.0513C293.161 22.4787 294.327 23.2454 295.871 23.4648C297.662 23.7177 299.399 23.6455 300.845 22.3678C301.73 21.5856 302.027 20.2666 301.588 19.1929C301.317 18.5295 300.77 18.1217 300.104 17.9694C299.364 17.7975 298.618 17.6602 297.871 17.523C297.396 17.4356 296.92 17.3481 296.447 17.2518C296.193 17.2007 295.939 17.1526 295.685 17.1045C294.887 16.9534 294.088 16.8022 293.321 16.5575C291.16 15.8657 290.037 13.318 290.819 11.173C291.516 9.25779 292.99 8.37501 294.856 7.90265C296.397 7.51289 297.915 7.54128 299.438 7.93879C301.284 8.42148 302.598 9.50558 303.269 11.3124C303.442 11.7745 303.393 12.1178 302.786 12.1358C302.705 12.1378 302.625 12.1612 302.544 12.1848L302.527 12.1899L302.493 12.1994L302.471 12.2055C302.341 12.2394 302.229 12.2714 302.132 12.2994C301.493 12.4825 301.471 12.4888 301.041 11.6557C300.388 10.3987 299.314 9.74822 297.9 9.63981C296.537 9.53656 295.197 9.5314 293.987 10.3187C293.117 10.8865 292.704 11.7048 292.784 12.714C292.869 13.7801 293.501 14.5235 294.516 14.8048C295.329 15.0317 296.161 15.1866 296.994 15.3415C297.298 15.3981 297.602 15.4546 297.905 15.5146C298.248 15.5825 298.595 15.6366 298.941 15.6906C299.925 15.8441 300.907 15.9975 301.818 16.4671C303.527 17.3447 304.379 19.4174 303.839 21.2604C303.176 23.5241 301.578 24.7037 299.389 25.2252C298.884 25.3458 298.368 25.4214 297.853 25.497C297.607 25.533 297.362 25.5689 297.118 25.6098L297.123 25.6072Z" fill="white"/>
<path d="M183.509 10.52C183.613 10.3884 183.718 10.2567 183.795 10.1095C184.466 8.82668 185.576 8.1504 186.959 7.96714C187.559 7.88688 188.171 7.89271 188.783 7.89854C189.076 7.90134 189.37 7.90414 189.662 7.89744C190.121 7.88712 190.299 8.08845 190.31 8.55823L190.31 8.6064C190.323 9.27304 190.329 9.60149 190.168 9.76986C190.012 9.93327 189.698 9.94596 189.079 9.97098L188.973 9.97532C187.974 10.0166 186.951 10.0631 185.994 10.316C184.605 10.6826 183.841 11.7847 183.526 13.1115C183.302 14.0588 183.232 15.0603 183.219 16.0412C183.18 18.8263 183.193 21.6114 183.219 24.3965C183.224 24.9825 183.046 25.1916 182.447 25.1735C182.236 25.1667 182.057 25.1649 181.905 25.1634C181.474 25.1591 181.261 25.157 181.157 25.0492C181.055 24.9431 181.059 24.7347 181.068 24.3211C181.071 24.1773 181.074 24.0084 181.074 23.8106C181.067 20.3194 181.068 16.8281 181.07 13.336V13.326C181.071 11.8281 181.071 10.3301 181.071 8.83184C181.071 7.94132 181.071 7.93616 181.944 7.94132C182.077 7.94181 182.196 7.94091 182.302 7.94009C182.752 7.93665 182.98 7.93491 183.095 8.04791C183.212 8.16364 183.211 8.39972 183.209 8.87755C183.208 8.98326 183.208 9.10126 183.209 9.23193V10.6387L183.365 10.7059C183.411 10.643 183.46 10.5814 183.509 10.52Z" fill="white"/>
<path d="M146.623 13.1401V2.07963C146.623 1.18653 146.703 1.11684 147.64 1.11426C148.631 1.11426 148.755 1.21234 148.755 2.07447C148.755 3.42762 148.755 4.78069 148.755 6.1337C148.754 12.2189 148.753 18.3032 148.768 24.389C148.768 25.0317 148.535 25.1918 147.939 25.1737C147.746 25.1674 147.58 25.1655 147.439 25.1639C147.021 25.159 146.813 25.1566 146.71 25.0512C146.608 24.9463 146.612 24.7394 146.619 24.3267C146.621 24.1988 146.623 24.0511 146.623 23.8805C146.617 21.3229 146.618 18.7652 146.619 16.2075C146.62 15.185 146.62 14.1626 146.62 13.1401H146.623Z" fill="white"/>
<path d="M214.196 24.2619V13.2659H214.198C214.198 12.4661 214.199 11.6663 214.199 10.8665C214.2 7.93646 214.202 5.00642 214.186 2.07639C214.186 1.79246 214.044 1.30203 213.884 1.26331C213.391 1.14715 212.836 1.12134 212.35 1.24266C212.185 1.28396 212.077 1.86473 212.077 2.19771C212.061 9.44058 212.064 16.686 212.066 23.9315C212.066 24.6169 212.029 24.9225 212.163 25.0576C212.298 25.1941 212.61 25.1563 213.313 25.1602C214.193 25.1653 214.196 25.1576 214.196 24.2619Z" fill="white"/>
</svg>
